FDS_states
version=1
nRows=4
nColumns=142
inDegrees=yes

# SIMM Motion File Header:
name FDS_states
datacolumns 142
datarows 4
otherdata 1
range 2.24575593296442566071 2.24859418955818224362
endheader
time	/jointset/groundthorax/r_z/value	/jointset/groundthorax/r_z/speed	/jointset/sternoclavicular/sternoclavicular_r2/value	/jointset/sternoclavicular/sternoclavicular_r2/speed	/jointset/sternoclavicular/sternoclavicular_r3/value	/jointset/sternoclavicular/sternoclavicular_r3/speed	/jointset/unrotscap/unrotscap_r3/value	/jointset/unrotscap/unrotscap_r3/speed	/jointset/unrotscap/unrotscap_r2/value	/jointset/unrotscap/unrotscap_r2/speed	/jointset/acromioclavicular/acromioclavicular_r2/value	/jointset/acromioclavicular/acromioclavicular_r2/speed	/jointset/acromioclavicular/acromioclavicular_r3/value	/jointset/acromioclavicular/acromioclavicular_r3/speed	/jointset/acromioclavicular/acromioclavicular_r1/value	/jointset/acromioclavicular/acromioclavicular_r1/speed	/jointset/unrothum/unrothum_r1/value	/jointset/unrothum/unrothum_r1/speed	/jointset/unrothum/unrothum_r3/value	/jointset/unrothum/unrothum_r3/speed	/jointset/unrothum/unrothum_r2/value	/jointset/unrothum/unrothum_r2/speed	/jointset/shoulder0/elv_angle/value	/jointset/shoulder0/elv_angle/speed	/jointset/shoulder1/shoulder_elv/value	/jointset/shoulder1/shoulder_elv/speed	/jointset/shoulder1/shoulder1_r2/value	/jointset/shoulder1/shoulder1_r2/speed	/jointset/shoulder2/shoulder_rot/value	/jointset/shoulder2/shoulder_rot/speed	/jointset/elbow/elbow_flexion/value	/jointset/elbow/elbow_flexion/speed	/jointset/radioulnar/pro_sup/value	/jointset/radioulnar/pro_sup/speed	/jointset/radiocarpal/deviation/value	/jointset/radiocarpal/deviation/speed	/jointset/radiocarpal/flexion/value	/jointset/radiocarpal/flexion/speed	/jointset/wrist_hand/wrist_hand_r1/value	/jointset/wrist_hand/wrist_hand_r1/speed	/jointset/wrist_hand/wrist_hand_r3/value	/jointset/wrist_hand/wrist_hand_r3/speed	/forceset/DELT1/activation	/forceset/DELT1/fiber_length	/forceset/DELT2/activation	/forceset/DELT2/fiber_length	/forceset/DELT3/activation	/forceset/DELT3/fiber_length	/forceset/SUPSP/activation	/forceset/SUPSP/fiber_length	/forceset/INFSP/activation	/forceset/INFSP/fiber_length	/forceset/SUBSC/activation	/forceset/SUBSC/fiber_length	/forceset/TMIN/activation	/forceset/TMIN/fiber_length	/forceset/TMAJ/activation	/forceset/TMAJ/fiber_length	/forceset/PECM1/activation	/forceset/PECM2/activation	/forceset/PECM2/fiber_length	/forceset/PECM3/activation	/forceset/PECM3/fiber_length	/forceset/LAT1/activation	/forceset/LAT1/fiber_length	/forceset/LAT2/activation	/forceset/LAT2/fiber_length	/forceset/LAT3/activation	/forceset/LAT3/fiber_length	/forceset/CORB/activation	/forceset/CORB/fiber_length	/forceset/TRIlong/activation	/forceset/TRIlong/fiber_length	/forceset/TRIlat/activation	/forceset/TRIlat/fiber_length	/forceset/TRImed/activation	/forceset/TRImed/fiber_length	/forceset/ANC/activation	/forceset/ANC/fiber_length	/forceset/SUP/activation	/forceset/SUP/fiber_length	/forceset/BIClong/activation	/forceset/BIClong/fiber_length	/forceset/BICshort/activation	/forceset/BICshort/fiber_length	/forceset/BRA/activation	/forceset/BRA/fiber_length	/forceset/BRD/activation	/forceset/BRD/fiber_length	/forceset/ECRL/activation	/forceset/ECRL/fiber_length	/forceset/ECRB/activation	/forceset/ECRB/fiber_length	/forceset/ECU/activation	/forceset/ECU/fiber_length	/forceset/FCR/activation	/forceset/FCR/fiber_length	/forceset/FCU/activation	/forceset/FCU/fiber_length	/forceset/PL/activation	/forceset/PL/fiber_length	/forceset/PT/activation	/forceset/PT/fiber_length	/forceset/PQ/activation	/forceset/PQ/fiber_length	/forceset/FDSL/activation	/forceset/FDSL/fiber_length	/forceset/FDSR/activation	/forceset/FDSR/fiber_length	/forceset/FDSM/activation	/forceset/FDSM/fiber_length	/forceset/FDSI/activation	/forceset/FDSI/fiber_length	/forceset/FDPL/activation	/forceset/FDPL/fiber_length	/forceset/FDPR/activation	/forceset/FDPR/fiber_length	/forceset/FDPM/activation	/forceset/FDPM/fiber_length	/forceset/FDPI/activation	/forceset/FDPI/fiber_length	/forceset/EDCL/activation	/forceset/EDCL/fiber_length	/forceset/EDCR/activation	/forceset/EDCR/fiber_length	/forceset/EDCM/activation	/forceset/EDCM/fiber_length	/forceset/EDCI/activation	/forceset/EDCI/fiber_length	/forceset/EDM/activation	/forceset/EDM/fiber_length	/forceset/EIP/activation	/forceset/EIP/fiber_length	/forceset/EPL/activation	/forceset/EPL/fiber_length	/forceset/EPB/activation	/forceset/EPB/fiber_length	/forceset/FPL/activation	/forceset/FPL/fiber_length	/forceset/APL/activation	/forceset/APL/fiber_length
      2.24575593296442566071	     10.00000027595003082581	      0.00000000115278898038	    -11.85344132960632279605	      0.19865726901678798511	      5.02055829527175756510	     -0.08414184304573514572	     -5.02055829527695696157	      0.08414184304201390019	     11.85344132960621799100	     -0.19865726901680949568	     -2.40008075170313661673	      0.04022405597578818798	     19.39660839176488948965	     -0.32507667133536877202	      8.71864198043936688975	     -0.14611972652210122869	     -8.71864198043746618794	      0.14611972652349053403	    -19.39660839176161033492	      0.32507667133838047402	      2.40008075169607559829	     -0.04022405598080994182	     70.75227457084282889355	      2.30035352785332181114	     48.98105273654152824747	     -0.82089596595681102453	    -70.75227457084140780808	     -2.30035352785198954351	      9.44992540647148260291	     -4.04215485254156092765	     22.86347081188305807586	    -12.03955757579841190363	     19.44881545456894045287	     11.43197223271734408456	      0.00000000137396588452	      0.00000000000442899611	      0.00000000000705791026	      0.00000000000961043735	      0.00000010617074900344	     -0.00000000054628454645	      0.00000000035208516013	      0.00000000048919596395	      0.19376181418245885801	      0.08897802124212983443	      0.14885187553273587779	      0.08495322191476915863	      0.02200277994268122483	      0.14206954557359796620	      0.02965994914441736838	      0.06727149133874689435	      0.16400098283740971450	      0.07672540305193979726	      0.02000099756219510597	      0.08100471918192869714	      0.02771650507293850832	      0.06671295108263478046	      0.03681339313034647648	      0.14864269507683627869	      0.02000000045188406184	      0.02000000063281204624	      0.10006361632686783247	      0.02000000072022815878	      0.08193406486471169203	      0.02000002902309788028	      0.18823931733553583845	      0.02000004851070083176	      0.15966424312333965529	      0.02000001848565537838	      0.22581004561038742207	      0.02200138884633281652	      0.06795165949448928044	      0.02000003721867679024	      0.16607366453770153192	      0.02000000020786609281	      0.07960493245619415514	      0.02000000021135965589	      0.07460734621627455876	      0.02003861651890672183	      0.01213723959412626834	      0.02000617594606686825	      0.03588135508197957263	      0.07014876469730037256	      0.14494067076724564958	      0.02000000000000000042	      0.16394999759778258741	      0.14262229363295270135	      0.08752937216403851306	      0.06942149168102590417	      0.19171310013184447718	      0.06499824790478833658	      0.08606200312386969031	      0.08537168269158475209	      0.06140844006871402222	      0.08800743584079696868	      0.06356807945638590085	      0.02000000000000000042	      0.06389673343651347537	      0.02000000000000000042	      0.04560681038146141564	      0.02000000000000000042	      0.06452671960444530952	      0.08868290851899476857	      0.05352959587738990305	      0.02412715508085545510	      0.02409103228435573174	      0.02201457406933046007	      0.04905307808824801996	      0.02000000000000000042	      0.07066887557845538681	      0.02000000000000000042	      0.07230225108211073282	      0.02000000000000000042	      0.08450822570873234296	      0.02000000000000000042	      0.07407256132445226571	      0.02000000000000000042	      0.07794065931984819895	      0.02000000000000000042	      0.07415389669518142324	      0.02000000000000000042	      0.07371045840908144187	      0.02402766136942095787	      0.07657383920261624788	      0.06578667016716845117	      0.06300577768927591304	      0.04802002959368492641	      0.07562414028300691593	      0.03061575909256215519	      0.06972736907196855349	      0.03391600605797810003	      0.07418398927217598193	      0.02612710170517743360	      0.06578596959934852884	      0.02403399888717618754	      0.06260312633207681943	      0.02000000000000000042	      0.06764417275227227466	      0.02000000000000000042	      0.05968005991105594654	      0.02000000000000000042	      0.07039142965687635034
      2.24663822585690775568	     10.00000027595104867828	      0.00000000115328628976	    -11.85326320018205237261	      0.20511327616598803991	      5.02048284805488620464	     -0.08687630296713651223	     -5.02048284806008826564	      0.08687630296339955704	     11.85326320018194756756	     -0.20511327616596700119	     -2.40004468411815397033	      0.04153126609823402232	     19.39631690623005511043	     -0.33564108372537987401	      8.71851095969751987980	     -0.15086835718486515945	     -8.71851095969561917798	      0.15086835718625879466	    -19.39631690622677240299	      0.33564108372839290828	      2.40004468411108806691	     -0.04153126610332086299	     70.75431248891766244924	      2.31923335030925192868	     48.98031666619019830478	     -0.84757362165593808090	    -70.75431248891624136377	     -2.31923335030789434796	      9.44631426754611425167	     -4.14256684160544530471	     22.85286958441258065022	    -11.99167261136642714803	     19.45887625902185291693	     11.37227338993398717548	      0.00000000137396979700	      0.00000000000443553279	      0.00000000000706639899	      0.00000000000962174884	      0.00000010617026715431	     -0.00000000054588562915	      0.00000000035251639573	      0.00000000048843574152	      0.19393884667098279517	      0.08897749501306513598	      0.14884117230343255067	      0.08495413966662940242	      0.02200274745125346126	      0.14206942487709042777	      0.02961625871347149663	      0.06727285854391402975	      0.16396219553822224957	      0.07672452193197866477	      0.02000098596818186344	      0.08100627731412360366	      0.02771596887035820272	      0.06671184239123596760	      0.03692759825854797368	      0.14864202015421648650	      0.02000000044663212406	      0.02000000062545730442	      0.10006355971673723537	      0.02000000071185744147	      0.08193387063795344594	      0.02000002868578230203	      0.18823968039375149619	      0.02000004794689416721	      0.15966459174559380352	      0.02000001827080927913	      0.22581036268808402090	      0.02200137261383061302	      0.06795102397635489899	      0.02000003678610960331	      0.16606869087481013203	      0.02000000020545020935	      0.07960055337528890163	      0.02000000020890316602	      0.07460299741713637134	      0.02003816765712361850	      0.01213715392264150435	      0.02000610416604347089	      0.03588264576219511726	      0.07013473744227750883	      0.14494623379105708860	      0.02000000000000000042	      0.16395415217722048018	      0.14281471917258192761	      0.08753107998822022562	      0.06941285131250184148	      0.19171813933014500431	      0.06497747857162115837	      0.08606443430499838287	      0.08535939962524524693	      0.06140968628405189117	      0.08800326819831322256	      0.06356725801240160900	      0.02000000000000000042	      0.06389845673252941838	      0.02000000000000000042	      0.04560787542517188986	      0.02000000000000000042	      0.06452812067248338279	      0.08866003045497801438	      0.05352992140030185531	      0.02412566008753543045	      0.02408970348121984226	      0.02201440372486343500	      0.04905465657345246117	      0.02000000000000000042	      0.07067036700907759761	      0.02000000000000000042	      0.07230190784147504102	      0.02000000000000000042	      0.08450782203147909344	      0.02000000000000000042	      0.07407234005791346609	      0.02000000000000000042	      0.07794042281843491238	      0.02000000000000000042	      0.07415358791658918647	      0.02000000000000000042	      0.07371010740568388619	      0.02402733623740592808	      0.07657281023703362000	      0.06576888494274002461	      0.06300482379210453621	      0.04801042350787036728	      0.07562333608769576665	      0.03061102573144943925	      0.06972655013146798753	      0.03391213267422858724	      0.07418295112413540726	      0.02612644420995980862	      0.06578602107210060335	      0.02403359925690987109	      0.06260340761107897889	      0.02000000000000000042	      0.06764417275227227466	      0.02000000000000000042	      0.05968005991105591879	      0.02000000000000000042	      0.07039142965687633646
      2.24752051874938985065	     10.00000027595206653075	      0.00000000115457916504	    -11.85307941431335088112	      0.21148241251979327249	      5.02040500503512188146	     -0.08957396851973761787	     -5.02040500504032749518	      0.08957396851600103738	     11.85307941431324607606	     -0.21148241251962132670	     -2.40000747121823421182	      0.04282088665174881015	     19.39601616466276823303	     -0.34606334340616184964	      8.71837577843279021295	     -0.15555309118307053540	     -8.71837577843088773477	      0.15555309118445373451	    -19.39601616465948552559	      0.34606334340917271897	      2.40000747121116342342	     -0.04282088665682536738	     70.75636702628750640542	      2.33801841637986251854	     48.97955722215392171393	     -0.87389230793072281145	    -70.75636702628607110910	     -2.33801841637850404965	      9.44261821046858784712	     -4.23425686733423400909	     22.84230997378326222247	    -11.94534495030942622407	     19.46887656518923748195	     11.29355832545556381774	      0.00000000137397371439	      0.00000000000444038870	      0.00000000000707490500	      0.00000000000964842007	      0.00000010616978391562	     -0.00000000054872988420	      0.00000000035294828144	      0.00000000048999045360	      0.19409714165108624129	      0.08897701080151368402	      0.14883063870225976544	      0.08495508715686886370	      0.02200271533958206988	      0.14206929245499327896	      0.02957309496836946563	      0.06727424364463706341	      0.16392404415630584813	      0.07672361447536095447	      0.02000097450891862721	      0.08100786690873121310	      0.02771543903575393944	      0.06671070541939835841	      0.03702500054896858822	      0.14864256820789442659	      0.02000000044144122427	      0.02000000061818804284	      0.10006351021165064974	      0.02000000070358401091	      0.08193367671248032169	      0.02000002835238711210	      0.18824004813877615039	      0.02000004738964024018	      0.15966494267957354047	      0.02000001805846018943	      0.22581067960320092003	      0.02200135657105071682	      0.06795038153043705953	      0.02000003635856984971	      0.16606371753862858576	      0.02000000020306240411	      0.07959619235425235972	      0.02000000020647522622	      0.07459866640985883535	      0.02003772401327352792	      0.01213706831410092148	      0.02000603322029868847	      0.03588393332083127801	      0.07012089667275628324	      0.14495180910850541389	      0.02000000000000000042	      0.16395828849735968880	      0.14298471871552290158	      0.08753281977435135863	      0.06940432549707786780	      0.19172316169794992313	      0.06495698221336128342	      0.08606689699934805260	      0.08534728589431059276	      0.06141093559921922962	      0.08799915829145833757	      0.06356642801166863255	      0.02000000000000000042	      0.06390017131851745413	      0.02000000000000000042	      0.04560893573410870067	      0.02000000000000000042	      0.06452951350253836871	      0.08863747081102923975	      0.05353025866667392857	      0.02412418267732304236	      0.02408838252126785373	      0.02201423537149438045	      0.04905622776279913028	      0.02000000000000000042	      0.07067185061263499268	      0.02000000000000000042	      0.07230156139462531883	      0.02000000000000000042	      0.08450741509871352586	      0.02000000000000000042	      0.07407211679645994695	      0.02000000000000000042	      0.07794018422717795269	      0.02000000000000000042	      0.07415327643540339797	      0.02000000000000000042	      0.07370975304153545848	      0.02402701492728477953	      0.07657178712409305754	      0.06575133379995408422	      0.06300387855312258867	      0.04800093809936648720	      0.07562253864075933751	      0.03060634908557429562	      0.06972573612195596959	      0.03390830611005545003	      0.07418192013203220303	      0.02612579448925096692	      0.06578607281471679502	      0.02403320432442050333	      0.06260369124136551389	      0.02000000000000000042	      0.06764417275227230242	      0.02000000000000000042	      0.05968005991105596042	      0.02000000000000000042	      0.07039142965687636422
      2.24859418955818224362	     10.00000027595330642782	      0.00000000115659690213	    -11.85284824702235972893	      0.21910135722446888451	      5.02030709348115777857	     -0.09280099390203969123	     -5.02030709348636694500	      0.09280099389826802769	     11.85284824702225492388	     -0.21910135722419205040	     -2.39996066454411360880	      0.04436356797327806190	     19.39563788958706425092	     -0.35853075119819138861	      8.71820574638962675351	     -0.16115710518220124903	     -8.71820574638772249898	      0.16115710518358297709	    -19.39563788958377443805	      0.35853075120124977548	      2.39996066453703749133	     -0.04436356797829641568	     70.75888952607310500298	      2.36081520163943681112	     48.97860198755528671199	     -0.90537547994806699680	    -70.75888952607168391751	     -2.36081520163806413137	      9.43801599147957936964	     -4.33783216064015775260	     22.82951429051313496643	    -11.89005666094039703751	     19.48094612179967910492	     11.19114190145598008996	      0.00000000137397848630	      0.00000000000445360353	      0.00000000000708526668	      0.00000000000966291909	      0.00000010616919301050	     -0.00000000055240885203	      0.00000000035347657567	      0.00000000049446188042	      0.19426736275445691260	      0.08897648577159600336	      0.14881804517456898029	      0.08495627552946519168	      0.02200267676840995251	      0.14206911656220672091	      0.02952126967457030515	      0.06727595232413646764	      0.16387845994719035803	      0.07672247721609738724	      0.02000096074352868819	      0.08100984077913973846	      0.02771480275521946701	      0.06670928626566831332	      0.03712442143309500897	      0.14864148406900071220	      0.02000000043520568094	      0.02000000060945587507	      0.10006345763621375677	      0.02000000069364558930	      0.08193343973447068940	      0.02000002795189756780	      0.18824050066616782040	      0.02000004672024134969	      0.15966537143988820957	      0.02000001780337675242	      0.22581106370376302639	      0.02200133730114481323	      0.06794959023134862497	      0.02000003584498954989	      0.16605766605797600555	      0.02000000020019405966	      0.07959090895361167761	      0.02000000020355867728	      0.07459341920590695230	      0.02003719108946996549	      0.01213696422098848107	      0.02000594799706404900	      0.03588549232973372444	      0.07010430165248497658	      0.14495860409715330408	      0.02000000000000000042	      0.16396329219961908175	      0.14316511735127560034	      0.08753498226902431401	      0.06939410266679096884	      0.19172924788806350316	      0.06493240298322353055	      0.08606992941523899932	      0.08533276960407377987	      0.06141245878014955917	      0.08799423362718040986	      0.06356540782162076186	      0.02000000000000000042	      0.06390224651009533685	      0.02000000000000000042	      0.04561021967070399280	      0.02000000000000000042	      0.06453119785574269740	      0.08861044082091326657	      0.05353068257301531185	      0.02412240822098941570	      0.02408678662560156253	      0.02201403315276789785	      0.04905813005291879969	      0.02000000000000000042	      0.07067364582841259568	      0.02000000000000000042	      0.07230113645314392712	      0.02000000000000000042	      0.08450691676131680263	      0.02000000000000000042	      0.07407184306177055921	      0.02000000000000000042	      0.07793989176226956417	      0.02000000000000000042	      0.07415289466423574671	      0.02000000000000000042	      0.07370931826729015812	      0.02402662901223342334	      0.07657054956059670958	      0.06573028691166182824	      0.06300273921307648906	      0.04798955579400784877	      0.07562157664064407536	      0.03060073354792164704	      0.06972475178629501669	      0.03390371186188435859	      0.07418067458648913703	      0.02612501419182718457	      0.06578613601364516339	      0.02403272998417169473	      0.06260403874518236100	      0.02000000000000000042	      0.06764417275227235793	      0.02000000000000000042	      0.05968005991105595348	      0.02000000000000000042	      0.07039142965687639197
